<?xml version="1.0" standalone="no"?>
<!DOCTYPE svg PUBLIC "-//W3C//DTD SVG 20010904//EN"
 "http://www.w3.org/TR/2001/REC-SVG-20010904/DTD/svg10.dtd">
<svg version="1.0" xmlns="http://www.w3.org/2000/svg"
 width="512.000000pt" height="512.000000pt" viewBox="0 0 512.000000 512.000000"
 preserveAspectRatio="xMidYMid meet">
<metadata>
Created by potrace 1.14, written by Peter Selinger 2001-2017
</metadata>
<g transform="translate(0.000000,512.000000) scale(0.100000,-0.100000)"
fill="#000000" stroke="none">
<path d="M3104 4710 c-43 -10 -91 -45 -109 -80 -22 -43 -19 -118 8 -164 29
-52 75 -78 136 -78 170 0 231 203 91 302 -31 21 -85 30 -126 20z"/>
<path d="M2885 4073 c-80 -3 -603 -21 -990 -33 -531 -17 -1012 -59 -1099 -95
-106 -45 -129 -182 -45 -266 53 -53 96 -58 220 -25 226 59 531 117 969 186
378 59 535 77 739 86 l153 7 -12 -22 c-10 -19 -31 -175 -46 -336 -11 -125
-100 -698 -149 -955 -55 -294 -173 -684 -285 -945 -263 -613 -535 -899 -940
-986 -139 -30 -455 -33 -624 -6 -201 32 -348 79 -390 125 -15 18 -15 25 4 118
13 64 34 128 60 181 47 96 49 121 14 162 -20 24 -34 31 -62 31 -63 -1 -78 -22
-139 -191 -72 -199 -79 -275 -36 -359 39 -77 97 -110 263 -150 408 -98 782
-101 1070 -8 269 87 504 291 694 603 74 122 200 383 267 555 63 160 193 542
297 875 l59 190 109 7 c248 16 558 83 944 204 118 37 244 75 279 85 35 10 74
25 86 33 42 28 38 96 -8 130 -25 18 -31 19 -70 8 -61 -19 -338 -66 -597 -102
-170 -24 -277 -33 -437 -37 l-212 -6 30 109 c16 60 32 120 35 134 l6 25 236 1
c329 1 546 29 1016 130 116 25 296 63 399 84 120 25 196 45 208 56 26 23 26
85 -1 109 -26 23 -54 22 -170 -9 -275 -72 -900 -121 -1252 -97 -174 11 -343
33 -356 45 -7 8 11 47 74 152 59 100 66 136 33 178 -20 26 -21 26 -152 24 -73
-1 -159 -3 -192 -5z"/>
</g>
</svg>
